<?xml version="1.0" encoding="utf-8"?>
<svg xmlns="http://www.w3.org/2000/svg" viewBox="0.7062 0.439 60.129 34" width="60.129px" height="34px">
  <g transform="matrix(1, 0, 0, 1, -9.29381370544434, -33.56099700927736)" id="object-0">
    <path d="M38.0013 34H32.0013C31.7361 34 31.4817 34.1054 31.2942 34.2929C31.1066 34.4804 31.0013 34.7348 31.0013 35C31.0013 35.2652 31.1066 35.5196 31.2942 35.7071C31.4817 35.8946 31.7361 36 32.0013 36H35.5875L30.3288 41.2587C28.3424 39.6351 25.808 38.837 23.2497 39.0295C20.6914 39.222 18.305 40.3903 16.5839 42.2929C14.8629 44.1956 13.9389 46.6869 14.0031 49.2516C14.0674 51.8163 15.1148 54.2582 16.9289 56.0723C18.743 57.8864 21.185 58.9339 23.7497 58.9981C26.3144 59.0624 28.8057 58.1384 30.7083 56.4174C32.6109 54.6963 33.7793 52.3099 33.9718 49.7516C34.1643 47.1933 33.3662 44.6589 31.7425 42.6725L37.0013 37.415V41C37.0013 41.2652 37.1066 41.5196 37.2942 41.7071C37.4817 41.8946 37.7361 42 38.0013 42C38.2665 42 38.5208 41.8946 38.7084 41.7071C38.8959 41.5196 39.0013 41.2652 39.0013 41V35C39.0013 34.7348 38.8959 34.4804 38.7084 34.2929C38.5208 34.1054 38.2665 34 38.0013 34ZM29.6563 54.6612C28.5373 55.7797 27.1118 56.5413 25.5601 56.8497C24.0083 57.1581 22.4 56.9994 20.9384 56.3938C19.4768 55.7882 18.2276 54.7628 17.3487 53.4473C16.4698 52.1318 16.0007 50.5852 16.0007 49.0031C16.0007 47.421 16.4698 45.8745 17.3487 44.5589C18.2276 43.2434 19.4768 42.218 20.9384 41.6124C22.4 41.0068 24.0083 40.8482 25.5601 41.1566C27.1118 41.465 28.5373 42.2265 29.6563 43.345C31.1543 44.847 31.9955 46.8818 31.9955 49.0031C31.9955 51.1245 31.1543 53.1592 29.6563 54.6612Z" fill="#0F203A"/>
    <path d="M30 49C30 47.0648 29.4385 45.1712 28.3835 43.5489C27.3286 41.9265 25.8257 40.6451 24.0569 39.86C22.2881 39.0749 20.3295 38.8199 18.4187 39.1259C16.5079 39.4319 14.7269 40.2858 13.2918 41.584C11.8566 42.8821 10.8289 44.5688 10.3334 46.4395C9.83788 48.3101 9.89576 50.2844 10.5001 52.1228C11.1043 53.9612 12.2291 55.5848 13.7378 56.7966C15.2466 58.0084 17.0745 58.7565 19 58.95V62H15C14.7348 62 14.4804 62.1054 14.2929 62.2929C14.1054 62.4804 14 62.7348 14 63C14 63.2652 14.1054 63.5196 14.2929 63.7071C14.4804 63.8946 14.7348 64 15 64H19V67C19 67.2652 19.1054 67.5196 19.2929 67.7071C19.4804 67.8946 19.7348 68 20 68C20.2652 68 20.5196 67.8946 20.7071 67.7071C20.8946 67.5196 21 67.2652 21 67V64H25C25.2652 64 25.5196 63.8946 25.7071 63.7071C25.8946 63.5196 26 63.2652 26 63C26 62.7348 25.8946 62.4804 25.7071 62.2929C25.5196 62.1054 25.2652 62 25 62H21V58.95C23.4654 58.6991 25.7503 57.543 27.4127 55.7051C29.0751 53.8672 29.997 51.4782 30 49ZM12 49C12 47.4178 12.4692 45.871 13.3482 44.5554C14.2273 43.2398 15.4767 42.2145 16.9385 41.609C18.4003 41.0035 20.0089 40.845 21.5607 41.1537C23.1126 41.4624 24.538 42.2243 25.6569 43.3431C26.7757 44.462 27.5376 45.8874 27.8463 47.4393C28.155 48.9911 27.9965 50.5997 27.391 52.0615C26.7855 53.5233 25.7602 54.7727 24.4446 55.6518C23.129 56.5308 21.5823 57 20 57C17.879 56.9977 15.8455 56.1541 14.3457 54.6543C12.8459 53.1545 12.0023 51.121 12 49Z" fill="#F29A59"/>
    <path d="M49.597 37.513C49.8723 37.513 50.1173 37.5363 50.332 37.583C50.5467 37.6297 50.7403 37.6927 50.913 37.772L50.71 38.423C50.5467 38.3437 50.3787 38.2853 50.206 38.248C50.0333 38.2107 49.863 38.192 49.695 38.192C49.5037 38.192 49.3217 38.2223 49.149 38.283C48.981 38.3437 48.834 38.4393 48.708 38.57C48.582 38.7007 48.4817 38.8687 48.407 39.074C48.3323 39.2747 48.295 39.5173 48.295 39.802C48.295 40.3107 48.407 40.7027 48.631 40.978C48.8597 41.2487 49.184 41.384 49.604 41.384C49.8467 41.384 50.0287 41.3607 50.15 41.314V40.285H49.422V39.571H51.067V41.804C50.885 41.8833 50.6727 41.9487 50.43 42C50.1873 42.0513 49.9097 42.077 49.597 42.077C49.2703 42.077 48.9647 42.028 48.68 41.93C48.4 41.832 48.155 41.6873 47.945 41.496C47.7397 41.3 47.5763 41.062 47.455 40.782C47.3383 40.4973 47.28 40.1707 47.28 39.802C47.28 39.4333 47.3383 39.1067 47.455 38.822C47.5763 38.5327 47.7397 38.2923 47.945 38.101C48.1503 37.9097 48.393 37.765 48.673 37.667C48.9577 37.5643 49.2657 37.513 49.597 37.513ZM54.559 40.39H52.207V40.453C52.207 40.8403 52.312 41.1413 52.522 41.356C52.732 41.5707 53.019 41.678 53.383 41.678C53.5463 41.678 53.698 41.6663 53.838 41.643C53.978 41.615 54.1227 41.5707 54.272 41.51L54.377 41.874C54.2463 41.93 54.0923 41.9743 53.915 42.007C53.7423 42.0443 53.558 42.063 53.362 42.063C53.1333 42.063 52.9187 42.0303 52.718 41.965C52.5173 41.8997 52.34 41.7993 52.186 41.664C52.0367 41.524 51.9177 41.3467 51.829 41.132C51.7403 40.9173 51.696 40.6607 51.696 40.362C51.696 40.1053 51.7333 39.872 51.808 39.662C51.8827 39.452 51.9853 39.2747 52.116 39.13C52.2513 38.9807 52.4123 38.8663 52.599 38.787C52.7903 38.7077 53.0027 38.668 53.236 38.668C53.4367 38.668 53.6163 38.703 53.775 38.773C53.9383 38.8383 54.0783 38.934 54.195 39.06C54.3117 39.186 54.4003 39.3377 54.461 39.515C54.5263 39.6923 54.559 39.8883 54.559 40.103V40.39ZM54.055 40.026C54.055 39.8953 54.0387 39.7717 54.006 39.655C53.9733 39.5337 53.922 39.4287 53.852 39.34C53.7867 39.2467 53.7003 39.1743 53.593 39.123C53.4857 39.067 53.3573 39.039 53.208 39.039C52.9373 39.039 52.7133 39.1277 52.536 39.305C52.3633 39.4823 52.2583 39.725 52.221 40.033L54.055 40.026ZM55.828 42H55.338V38.71H55.709L55.786 39.165C55.9493 39.011 56.1197 38.8897 56.297 38.801C56.479 38.7123 56.6867 38.668 56.92 38.668C57.256 38.668 57.5197 38.7613 57.711 38.948C57.9023 39.1347 57.998 39.396 57.998 39.732V42H57.508V39.823C57.508 39.6037 57.452 39.424 57.34 39.284C57.228 39.1393 57.0413 39.067 56.78 39.067C56.6167 39.067 56.451 39.109 56.283 39.193C56.115 39.2723 55.9633 39.3867 55.828 39.536V42ZM61.1719 37.03H61.6619V42H61.2559L61.1929 41.664H61.1789C61.0575 41.7947 60.9222 41.895 60.7729 41.965C60.6235 42.0303 60.4345 42.063 60.2059 42.063C60.0285 42.063 59.8559 42.028 59.6879 41.958C59.5199 41.888 59.3682 41.783 59.2329 41.643C59.0975 41.503 58.9879 41.328 58.9039 41.118C58.8245 40.9033 58.7849 40.6513 58.7849 40.362C58.7849 40.1053 58.8175 39.872 58.8829 39.662C58.9529 39.452 59.0509 39.2747 59.1769 39.13C59.3075 38.9807 59.4639 38.8663 59.6459 38.787C59.8325 38.7077 60.0425 38.668 60.2759 38.668C60.4485 38.668 60.6095 38.6937 60.7589 38.745C60.9129 38.7963 61.0505 38.8757 61.1719 38.983V37.03ZM61.1719 39.431C61.0692 39.3097 60.9479 39.2163 60.8079 39.151C60.6679 39.081 60.5232 39.046 60.3739 39.046C60.2339 39.046 60.0985 39.0693 59.9679 39.116C59.8372 39.1627 59.7205 39.2373 59.6179 39.34C59.5199 39.4427 59.4405 39.578 59.3799 39.746C59.3192 39.9093 59.2889 40.1077 59.2889 40.341C59.2889 40.5837 59.3169 40.789 59.3729 40.957C59.4335 41.125 59.5129 41.2627 59.6109 41.37C59.7089 41.4773 59.8185 41.5567 59.9399 41.608C60.0659 41.6547 60.1942 41.678 60.3249 41.678C60.5162 41.678 60.6819 41.6407 60.8219 41.566C60.9619 41.4913 61.0785 41.3863 61.1719 41.251V39.431ZM65.2778 40.39H62.9258V40.453C62.9258 40.8403 63.0308 41.1413 63.2408 41.356C63.4508 41.5707 63.7378 41.678 64.1018 41.678C64.2651 41.678 64.4168 41.6663 64.5568 41.643C64.6968 41.615 64.8414 41.5707 64.9908 41.51L65.0958 41.874C64.9651 41.93 64.8111 41.9743 64.6338 42.007C64.4611 42.0443 64.2768 42.063 64.0808 42.063C63.8521 42.063 63.6374 42.0303 63.4368 41.965C63.2361 41.8997 63.0588 41.7993 62.9048 41.664C62.7554 41.524 62.6364 41.3467 62.5478 41.132C62.4591 40.9173 62.4148 40.6607 62.4148 40.362C62.4148 40.1053 62.4521 39.872 62.5268 39.662C62.6014 39.452 62.7041 39.2747 62.8348 39.13C62.9701 38.9807 63.1311 38.8663 63.3178 38.787C63.5091 38.7077 63.7214 38.668 63.9548 38.668C64.1554 38.668 64.3351 38.703 64.4938 38.773C64.6571 38.8383 64.7971 38.934 64.9138 39.06C65.0304 39.186 65.1191 39.3377 65.1798 39.515C65.2451 39.6923 65.2778 39.8883 65.2778 40.103V40.39ZM64.7738 40.026C64.7738 39.8953 64.7574 39.7717 64.7248 39.655C64.6921 39.5337 64.6408 39.4287 64.5708 39.34C64.5054 39.2467 64.4191 39.1743 64.3118 39.123C64.2044 39.067 64.0761 39.039 63.9268 39.039C63.6561 39.039 63.4321 39.1277 63.2548 39.305C63.0821 39.4823 62.9771 39.725 62.9398 40.033L64.7738 40.026ZM66.0427 42V38.71H66.3927L66.4837 39.368C66.5631 39.158 66.6961 38.99 66.8827 38.864C67.0694 38.7333 67.2817 38.668 67.5197 38.668C67.6364 38.668 67.7367 38.6773 67.8207 38.696C67.9047 38.7147 67.9724 38.7357 68.0237 38.759L67.9327 39.193C67.8767 39.165 67.8137 39.1417 67.7437 39.123C67.6737 39.1043 67.5921 39.095 67.4987 39.095C67.3634 39.095 67.2374 39.1207 67.1207 39.172C67.0041 39.2187 66.9014 39.2887 66.8127 39.382C66.7241 39.4753 66.6541 39.5943 66.6027 39.739C66.5514 39.8837 66.5257 40.0493 66.5257 40.236V42H66.0427Z" fill="black"/>
    <path d="M47.483 45.59H50.353V46.332H48.442V47.34H50.171V48.075H48.442V49.258H50.374V50H47.483V45.59ZM53.2832 49.762C53.1619 49.8693 53.0265 49.9463 52.8772 49.993C52.7325 50.0397 52.5669 50.063 52.3802 50.063C52.1469 50.063 51.9369 50.0233 51.7502 49.944C51.5682 49.86 51.4142 49.7457 51.2882 49.601C51.1622 49.4517 51.0642 49.272 50.9942 49.062C50.9289 48.852 50.8962 48.6163 50.8962 48.355C50.8962 48.1123 50.9289 47.8883 50.9942 47.683C51.0595 47.4777 51.1552 47.3003 51.2812 47.151C51.4119 46.997 51.5705 46.878 51.7572 46.794C51.9439 46.71 52.1562 46.668 52.3942 46.668C52.5622 46.668 52.7302 46.703 52.8982 46.773C53.0709 46.8383 53.2109 46.9317 53.3182 47.053L53.3812 46.71H53.7732V51.61H53.2832V49.762ZM53.2832 47.459C53.1992 47.3517 53.0895 47.256 52.9542 47.172C52.8189 47.088 52.6579 47.046 52.4712 47.046C52.3265 47.046 52.1889 47.0717 52.0582 47.123C51.9275 47.1743 51.8132 47.2537 51.7152 47.361C51.6172 47.4637 51.5402 47.5967 51.4842 47.76C51.4282 47.9187 51.4002 48.11 51.4002 48.334C51.4002 48.7867 51.4959 49.125 51.6872 49.349C51.8832 49.5683 52.1422 49.678 52.4642 49.678C52.6415 49.678 52.8002 49.643 52.9402 49.573C53.0849 49.503 53.1992 49.4167 53.2832 49.314V47.459ZM57.0029 46.71H57.4929V50H57.1219L57.0519 49.587H57.0309C56.9096 49.7177 56.7579 49.8297 56.5759 49.923C56.3939 50.0163 56.1816 50.063 55.9389 50.063C55.5983 50.063 55.3229 49.9697 55.1129 49.783C54.9029 49.5917 54.7979 49.3 54.7979 48.908V46.71H55.2879V48.831C55.2879 48.9943 55.3066 49.1297 55.3439 49.237C55.3813 49.3443 55.4326 49.4307 55.4979 49.496C55.5679 49.5613 55.6473 49.608 55.7359 49.636C55.8293 49.6593 55.9296 49.671 56.0369 49.671C56.2376 49.671 56.4196 49.6267 56.5829 49.538C56.7509 49.4493 56.8909 49.335 57.0029 49.195V46.71ZM58.482 47.004C58.7014 46.8873 58.902 46.8033 59.084 46.752C59.2707 46.696 59.476 46.668 59.7 46.668C59.868 46.668 60.022 46.689 60.162 46.731C60.3067 46.7683 60.4304 46.8337 60.533 46.927C60.6404 47.0203 60.722 47.144 60.778 47.298C60.8387 47.4473 60.869 47.634 60.869 47.858V50H60.491L60.414 49.601H60.4C60.26 49.7643 60.099 49.8833 59.917 49.958C59.7397 50.028 59.5437 50.063 59.329 50.063C59.175 50.063 59.0304 50.042 58.895 50C58.7644 49.9533 58.65 49.888 58.552 49.804C58.4587 49.72 58.384 49.6197 58.328 49.503C58.2767 49.3863 58.251 49.2557 58.251 49.111C58.251 48.9383 58.286 48.7867 58.356 48.656C58.426 48.5253 58.524 48.4157 58.65 48.327C58.7807 48.2383 58.9347 48.173 59.112 48.131C59.294 48.0843 59.4947 48.061 59.714 48.061H60.379V47.816C60.379 47.536 60.3137 47.3423 60.183 47.235C60.0524 47.123 59.8797 47.067 59.665 47.067C59.5344 47.067 59.385 47.088 59.217 47.13C59.0537 47.1673 58.8717 47.242 58.671 47.354L58.482 47.004ZM60.379 48.418L59.833 48.425C59.4457 48.4343 59.1704 48.502 59.007 48.628C58.8437 48.754 58.762 48.908 58.762 49.09C58.762 49.3093 58.8297 49.4633 58.965 49.552C59.1004 49.6407 59.2614 49.685 59.448 49.685C59.6114 49.685 59.777 49.6477 59.945 49.573C60.113 49.4937 60.2577 49.3653 60.379 49.188V48.418ZM61.8465 50V45.03H62.3295V50H61.8465ZM63.4264 50V46.71H63.9164V50H63.4264ZM63.6714 45.863C63.578 45.863 63.4987 45.8327 63.4334 45.772C63.3727 45.7113 63.3424 45.632 63.3424 45.534C63.3424 45.436 63.3727 45.3567 63.4334 45.296C63.4987 45.2307 63.578 45.198 63.6714 45.198C63.7554 45.198 63.83 45.2283 63.8954 45.289C63.9654 45.3497 64.0004 45.4313 64.0004 45.534C64.0004 45.6367 63.9677 45.7183 63.9024 45.779C63.837 45.835 63.76 45.863 63.6714 45.863ZM66.6913 47.081H65.6553V49.118C65.6553 49.3093 65.6997 49.4377 65.7883 49.503C65.8817 49.5683 66.003 49.601 66.1523 49.601C66.269 49.601 66.3833 49.5893 66.4953 49.566C66.6073 49.5427 66.7053 49.517 66.7893 49.489L66.8663 49.86C66.773 49.8973 66.6563 49.93 66.5163 49.958C66.3763 49.986 66.2247 50 66.0613 50C65.464 50 65.1653 49.727 65.1653 49.181V47.081H64.6263V46.71H65.1653V45.66H65.6553V46.71H66.6913V47.081ZM67.154 46.71H67.672L68.449 48.747L68.694 49.51H68.708L68.939 48.747L69.639 46.71H70.129L68.862 50.28C68.7267 50.658 68.5563 50.9543 68.351 51.169C68.1503 51.3883 67.9077 51.5517 67.623 51.659L67.42 51.281C67.6487 51.1877 67.847 51.0593 68.015 50.896C68.183 50.7327 68.3183 50.497 68.421 50.189L68.484 50L67.154 46.71Z" fill="black"/>
    <path d="M50.493 61.59V62.346H49.247V66H48.288V62.346H47.07V61.59H50.493ZM53.9147 64.32C53.9147 64.5953 53.875 64.8427 53.7957 65.062C53.7164 65.2767 53.6067 65.4587 53.4667 65.608C53.3267 65.7573 53.161 65.8717 52.9697 65.951C52.783 66.0257 52.5824 66.063 52.3677 66.063C52.1484 66.063 51.9454 66.028 51.7587 65.958C51.572 65.8833 51.411 65.776 51.2757 65.636C51.1404 65.4913 51.033 65.3163 50.9537 65.111C50.8744 64.901 50.8347 64.6607 50.8347 64.39C50.8347 64.1147 50.8744 63.8697 50.9537 63.655C51.0377 63.4403 51.1497 63.2607 51.2897 63.116C51.4297 62.9667 51.593 62.8547 51.7797 62.78C51.971 62.7053 52.1764 62.668 52.3957 62.668C52.6104 62.668 52.811 62.703 52.9977 62.773C53.1844 62.843 53.3454 62.948 53.4807 63.088C53.616 63.228 53.721 63.4007 53.7957 63.606C53.875 63.8113 53.9147 64.0493 53.9147 64.32ZM53.4037 64.355C53.4037 64.1263 53.3734 63.9303 53.3127 63.767C53.2567 63.599 53.1797 63.4637 53.0817 63.361C52.9884 63.2537 52.8787 63.1767 52.7527 63.13C52.6314 63.0787 52.5054 63.053 52.3747 63.053C52.244 63.053 52.1157 63.0763 51.9897 63.123C51.8684 63.1697 51.7587 63.2443 51.6607 63.347C51.5674 63.4497 51.4904 63.585 51.4297 63.753C51.3737 63.9163 51.3457 64.117 51.3457 64.355C51.3457 64.593 51.3737 64.796 51.4297 64.964C51.4904 65.132 51.5697 65.2697 51.6677 65.377C51.7657 65.4797 51.8777 65.5567 52.0037 65.608C52.1297 65.6547 52.258 65.678 52.3887 65.678C52.5194 65.678 52.6454 65.657 52.7667 65.615C52.888 65.5683 52.9954 65.4937 53.0887 65.391C53.1867 65.2837 53.2637 65.146 53.3197 64.978C53.3757 64.81 53.4037 64.6023 53.4037 64.355ZM57.5514 64.32C57.5514 64.5953 57.5117 64.8427 57.4324 65.062C57.3531 65.2767 57.2434 65.4587 57.1034 65.608C56.9634 65.7573 56.7977 65.8717 56.6064 65.951C56.4197 66.0257 56.2191 66.063 56.0044 66.063C55.7851 66.063 55.5821 66.028 55.3954 65.958C55.2087 65.8833 55.0477 65.776 54.9124 65.636C54.7771 65.4913 54.6697 65.3163 54.5904 65.111C54.5111 64.901 54.4714 64.6607 54.4714 64.39C54.4714 64.1147 54.5111 63.8697 54.5904 63.655C54.6744 63.4403 54.7864 63.2607 54.9264 63.116C55.0664 62.9667 55.2297 62.8547 55.4164 62.78C55.6077 62.7053 55.8131 62.668 56.0324 62.668C56.2471 62.668 56.4477 62.703 56.6344 62.773C56.8211 62.843 56.9821 62.948 57.1174 63.088C57.2527 63.228 57.3577 63.4007 57.4324 63.606C57.5117 63.8113 57.5514 64.0493 57.5514 64.32ZM57.0404 64.355C57.0404 64.1263 57.0101 63.9303 56.9494 63.767C56.8934 63.599 56.8164 63.4637 56.7184 63.361C56.6251 63.2537 56.5154 63.1767 56.3894 63.13C56.2681 63.0787 56.1421 63.053 56.0114 63.053C55.8807 63.053 55.7524 63.0763 55.6264 63.123C55.5051 63.1697 55.3954 63.2443 55.2974 63.347C55.2041 63.4497 55.1271 63.585 55.0664 63.753C55.0104 63.9163 54.9824 64.117 54.9824 64.355C54.9824 64.593 55.0104 64.796 55.0664 64.964C55.1271 65.132 55.2064 65.2697 55.3044 65.377C55.4024 65.4797 55.5144 65.5567 55.6404 65.608C55.7664 65.6547 55.8947 65.678 56.0254 65.678C56.1561 65.678 56.2821 65.657 56.4034 65.615C56.5247 65.5683 56.6321 65.4937 56.7254 65.391C56.8234 65.2837 56.9004 65.146 56.9564 64.978C57.0124 64.81 57.0404 64.6023 57.0404 64.355ZM58.3601 66V61.03H58.8431V66H58.3601Z" fill="black"/>
    <path d="M50.493 53.59V54.346H49.247V58H48.288V54.346H47.07V53.59H50.493ZM53.6977 56.39H51.3457V56.453C51.3457 56.8403 51.4507 57.1413 51.6607 57.356C51.8707 57.5707 52.1577 57.678 52.5217 57.678C52.685 57.678 52.8367 57.6663 52.9767 57.643C53.1167 57.615 53.2614 57.5707 53.4107 57.51L53.5157 57.874C53.385 57.93 53.231 57.9743 53.0537 58.007C52.881 58.0443 52.6967 58.063 52.5007 58.063C52.272 58.063 52.0574 58.0303 51.8567 57.965C51.656 57.8997 51.4787 57.7993 51.3247 57.664C51.1754 57.524 51.0564 57.3467 50.9677 57.132C50.879 56.9173 50.8347 56.6607 50.8347 56.362C50.8347 56.1053 50.872 55.872 50.9467 55.662C51.0214 55.452 51.124 55.2747 51.2547 55.13C51.39 54.9807 51.551 54.8663 51.7377 54.787C51.929 54.7077 52.1414 54.668 52.3747 54.668C52.5754 54.668 52.755 54.703 52.9137 54.773C53.077 54.8383 53.217 54.934 53.3337 55.06C53.4504 55.186 53.539 55.3377 53.5997 55.515C53.665 55.6923 53.6977 55.8883 53.6977 56.103V56.39ZM53.1937 56.026C53.1937 55.8953 53.1774 55.7717 53.1447 55.655C53.112 55.5337 53.0607 55.4287 52.9907 55.34C52.9254 55.2467 52.839 55.1743 52.7317 55.123C52.6244 55.067 52.496 55.039 52.3467 55.039C52.076 55.039 51.852 55.1277 51.6747 55.305C51.502 55.4823 51.397 55.725 51.3597 56.033L53.1937 56.026ZM55.9607 57.692C56.11 57.692 56.243 57.6757 56.3597 57.643C56.4763 57.6103 56.5883 57.5683 56.6957 57.517L56.8007 57.874C56.5487 58 56.2523 58.063 55.9117 58.063C55.683 58.063 55.4683 58.028 55.2677 57.958C55.067 57.888 54.8897 57.783 54.7357 57.643C54.5863 57.4983 54.4673 57.321 54.3787 57.111C54.2947 56.8963 54.2527 56.6467 54.2527 56.362C54.2527 56.1007 54.2923 55.865 54.3717 55.655C54.4557 55.445 54.57 55.2677 54.7147 55.123C54.864 54.9737 55.039 54.8617 55.2397 54.787C55.4403 54.7077 55.662 54.668 55.9047 54.668C56.0493 54.668 56.1893 54.6797 56.3247 54.703C56.4647 54.7217 56.6187 54.7683 56.7867 54.843L56.6747 55.221C56.5533 55.1557 56.4343 55.1113 56.3177 55.088C56.2057 55.06 56.089 55.046 55.9677 55.046C55.6037 55.046 55.3097 55.1603 55.0857 55.389C54.8663 55.6177 54.7567 55.935 54.7567 56.341C54.7567 56.5977 54.7917 56.8123 54.8617 56.985C54.9317 57.1577 55.0227 57.2977 55.1347 57.405C55.2467 57.5077 55.375 57.5823 55.5197 57.629C55.6643 57.671 55.8113 57.692 55.9607 57.692ZM58.0158 58H57.5258V53.03H58.0158V55.144C58.1698 55.0087 58.3401 54.8967 58.5268 54.808C58.7135 54.7147 58.9188 54.668 59.1428 54.668C59.3248 54.668 59.4835 54.696 59.6188 54.752C59.7541 54.8033 59.8638 54.878 59.9478 54.976C60.0365 55.0693 60.1018 55.1813 60.1438 55.312C60.1905 55.438 60.2138 55.578 60.2138 55.732V58H59.7238V55.865C59.7238 55.5803 59.6608 55.3773 59.5348 55.256C59.4135 55.13 59.2408 55.067 59.0168 55.067C58.8535 55.067 58.6855 55.109 58.5128 55.193C58.3448 55.277 58.1791 55.3937 58.0158 55.543V58Z" fill="black"/>
    <path fill-rule="evenodd" clip-rule="evenodd" d="M34.0404 57.4527C34.1722 56.8518 35.0294 56.848 35.1665 57.4478L35.1728 57.4756C35.177 57.4943 35.1811 57.5121 35.1853 57.5301C35.3387 58.182 35.8672 58.6801 36.5289 58.795C37.157 58.9041 37.157 59.8042 36.5289 59.9132C35.8637 60.0288 35.333 60.5316 35.1829 61.1886L35.1665 61.2604C35.0294 61.8602 34.1722 61.8565 34.0404 61.2555L34.0269 61.1939C33.8823 60.5345 33.3523 60.0279 32.686 59.9122C32.059 59.8033 32.059 58.9049 32.686 58.796C33.35 58.6807 33.8786 58.1773 34.0254 57.5212L34.0353 57.476L34.0404 57.4527ZM32.5569 60.6531C31.5784 60.4832 31.256 59.4873 31.5895 58.7729C31.5625 58.7462 31.533 58.7218 31.5013 58.7001C31.3937 58.6262 31.2663 58.5865 31.1357 58.5861H30.6039C30.4733 58.5865 30.3459 58.6262 30.2383 58.7001C30.1307 58.774 30.0479 58.8787 30.0009 59.0003L29.7221 59.7187L28.7624 60.2624L27.9972 60.1459C27.8698 60.1286 27.7402 60.1496 27.6247 60.206C27.5093 60.2625 27.4132 60.3519 27.3488 60.463L27.0894 60.9161C27.023 61.0289 26.9924 61.1592 27.0016 61.2898C27.0109 61.4204 27.0596 61.5451 27.1413 61.6474L27.6276 62.2494V63.3367L27.1543 63.9386C27.0726 64.041 27.0238 64.1657 27.0146 64.2963C27.0053 64.4268 27.0359 64.5571 27.1024 64.6699L27.3618 65.123C27.4262 65.2341 27.5222 65.3236 27.6377 65.38C27.7531 65.4365 27.8828 65.4575 28.0102 65.4402L28.7754 65.3237L29.7221 65.8673L30.0009 66.5858C30.0479 66.7074 30.1307 66.8121 30.2383 66.8859C30.3459 66.9598 30.4733 66.9996 30.6039 67H31.1486C31.2792 66.9996 31.4067 66.9598 31.5143 66.8859C31.6219 66.8121 31.7047 66.7074 31.7517 66.5858L32.0305 65.8673L32.9772 65.3237L33.7424 65.4402C33.8698 65.4575 33.9994 65.4365 34.1149 65.38C34.2304 65.3236 34.3264 65.2341 34.3908 65.123L34.6502 64.6699C34.7166 64.5571 34.7472 64.4268 34.738 64.2963C34.7287 64.1657 34.68 64.041 34.5983 63.9386L34.112 63.3367V62.371C33.7313 62.227 33.4123 61.9085 33.3044 61.4163L33.2909 61.3547C33.2117 60.9937 32.9216 60.7164 32.5569 60.6531ZM30.8698 64.1453C31.618 64.1453 32.2246 63.5399 32.2246 62.793C32.2246 62.0462 31.618 61.4408 30.8698 61.4408C30.1216 61.4408 29.515 62.0462 29.515 62.793C29.515 63.5399 30.1216 64.1453 30.8698 64.1453Z" fill="#AB7BC3"/>
    <path d="M19.1245 48C19.1245 48 23.6759 47.9792 24.6245 48M19.1245 50.3424C19.1245 50.3424 23.6759 50.3216 24.6245 50.3424" stroke="#AB7BC3" stroke-linecap="round"/>
  </g>
</svg>